<svg width="12" height="12" viewBox="0 0 12 12" fill="none" xmlns="http://www.w3.org/2000/svg">
<g clip-path="url(#clip0_537_19481)">
<path d="M11.883 6.13813C11.883 5.73026 11.8499 5.32019 11.7794 4.91895H6.12V7.22944H9.36086C9.22638 7.97461 8.79426 8.63381 8.16152 9.0527V10.5519H10.095C11.2304 9.50686 11.883 7.96359 11.883 6.13813Z" fill="#4285F4"/>
<path d="M6.11999 12.0004C7.73822 12.0004 9.1029 11.4691 10.0972 10.5519L8.16372 9.05277C7.62578 9.41875 6.93131 9.62599 6.12219 9.62599C4.55688 9.62599 3.22967 8.56995 2.75346 7.15015H0.75824V8.69562C1.7768 10.7217 3.85139 12.0004 6.11999 12.0004V12.0004Z" fill="#34A853"/>
<path d="M2.75126 7.15011C2.49993 6.40493 2.49993 5.59802 2.75126 4.85284V3.30737H0.758246C-0.0927552 5.00276 -0.0927552 7.00019 0.758246 8.69558L2.75126 7.15011V7.15011Z" fill="#FBBC04"/>
<path d="M6.11999 2.37483C6.9754 2.3616 7.80215 2.68348 8.42166 3.27433L10.1347 1.56131C9.04999 0.542752 7.61034 -0.017233 6.11999 0.000404333C3.85139 0.000404333 1.7768 1.27911 0.75824 3.3074L2.75126 4.85288C3.22526 3.43087 4.55468 2.37483 6.11999 2.37483V2.37483Z" fill="#EA4335"/>
</g>
<defs>
<clipPath id="clip0_537_19481">
<rect width="12" height="12" fill="white"/>
</clipPath>
</defs>
</svg>
